<svg width="30" height="30" viewBox="0 0 30 30" fill="none" xmlns="http://www.w3.org/2000/svg">
<g clip-path="url(#clip0_128_305)">
<path d="M15 12.5C17.0711 12.5 18.75 10.8211 18.75 8.75C18.75 6.67893 17.0711 5 15 5C12.9289 5 11.25 6.67893 11.25 8.75C11.25 10.8211 12.9289 12.5 15 12.5Z" stroke="#2C3E50" stroke-width="2" stroke-linecap="round" stroke-linejoin="round"/>
<path d="M21.25 23.75C23.3211 23.75 25 22.0711 25 20C25 17.9289 23.3211 16.25 21.25 16.25C19.1789 16.25 17.5 17.9289 17.5 20C17.5 22.0711 19.1789 23.75 21.25 23.75Z" stroke="#2C3E50" stroke-width="2" stroke-linecap="round" stroke-linejoin="round"/>
<path d="M8.75 23.75C10.8211 23.75 12.5 22.0711 12.5 20C12.5 17.9289 10.8211 16.25 8.75 16.25C6.67893 16.25 5 17.9289 5 20C5 22.0711 6.67893 23.75 8.75 23.75Z" stroke="#2C3E50" stroke-width="2" stroke-linecap="round" stroke-linejoin="round"/>
</g>
<defs>
<clipPath id="clip0_128_305">
<rect width="30" height="30" fill="white"/>
</clipPath>
</defs>
</svg>
