<svg width="24" height="24" viewBox="0 0 26 26" fill="none" xmlns="http://www.w3.org/2000/svg">
<g clip-path="url(#clip0_115_113)">
<path d="M16.25 22.75V18.9583C16.25 17.875 16.3583 17.4417 15.7083 16.7917C18.7417 16.4667 21.6667 15.275 21.6667 10.2917C21.6653 8.99705 21.1603 7.75376 20.2583 6.82501C20.6813 5.70047 20.6424 4.45427 20.15 3.35834C20.15 3.35834 18.9583 3.03334 16.3583 4.76667C14.1562 4.19314 11.8438 4.19314 9.64167 4.76667C7.04167 3.03334 5.85 3.35834 5.85 3.35834C5.3576 4.45427 5.31866 5.70047 5.74167 6.82501C4.83974 7.75376 4.33465 8.99705 4.33333 10.2917C4.33333 15.275 7.25833 16.4667 10.2917 16.7917C9.64167 17.4417 9.64167 18.0917 9.75 18.9583V22.75M9.75 20.5833C5.09167 22.1 5.09167 17.875 3.25 17.3333L9.75 20.5833Z" stroke="#666666" stroke-width="2.75" stroke-linecap="round" stroke-linejoin="round"/>
</g>
<defs>
<clipPath id="clip0_115_113">
<rect width="24" height="24" fill="white"/>
</clipPath>
</defs>
</svg>
