<svg width="579" height="456" viewBox="0 0 579 456" fill="none" xmlns="http://www.w3.org/2000/svg">
<g clip-path="url(#clip0_115_50)">
<path d="M290.209 12.7667C290.183 14.256 289.863 15.7254 289.269 17.091C288.675 18.4567 287.818 19.6918 286.746 20.7259C285.675 21.76 284.41 22.5728 283.024 23.1178C281.639 23.6628 280.159 23.9294 278.671 23.9023H225.142C224.948 23.8973 224.754 23.8923 224.56 23.8774C224.058 23.845 223.56 23.7768 223.068 23.6734V4.71613C223.067 3.95761 223.299 3.2171 223.731 2.59374C224.163 1.97038 224.775 1.49394 225.485 1.22818H279.079C282.083 1.28501 284.942 2.53176 287.029 4.69491C289.116 6.85806 290.259 9.76096 290.209 12.7667H290.209Z" fill="#E6E6E6"/>
<path d="M572.821 1.07837e-05H227.599C226.855 -0.00218751 226.118 0.134804 225.424 0.403914C224.248 0.844173 223.234 1.63347 222.518 2.66614C221.803 3.69881 221.419 4.92556 221.42 6.18213V382.879C221.42 384.519 222.072 386.091 223.23 387.25C224.389 388.409 225.961 389.061 227.599 389.062H572.821C574.459 389.061 576.031 388.409 577.189 387.25C578.348 386.091 578.999 384.519 579 382.879V6.18213C578.999 4.54271 578.348 2.97061 577.189 1.81137C576.031 0.652124 574.459 0.000605023 572.821 1.07837e-05ZM576.528 382.879C576.527 383.863 576.136 384.805 575.441 385.501C574.746 386.196 573.803 386.587 572.821 386.589H227.599C226.616 386.587 225.674 386.196 224.979 385.501C224.284 384.805 223.893 383.863 223.892 382.879V6.18213C223.893 5.19883 224.284 4.25622 224.979 3.56092C225.674 2.86562 226.616 2.47434 227.599 2.47286H572.821C573.803 2.47434 574.746 2.86562 575.441 3.56092C576.136 4.25622 576.527 5.19883 576.528 6.18213V382.879Z" fill="#E6E6E6"/>
<path d="M389.596 129.43C394.075 129.43 397.706 125.798 397.706 121.317C397.706 116.836 394.075 113.203 389.596 113.203C385.117 113.203 381.486 116.836 381.486 121.317C381.486 125.798 385.117 129.43 389.596 129.43Z" fill="#111111"/>
<path d="M423.387 129.43C427.866 129.43 431.497 125.798 431.497 121.317C431.497 116.836 427.866 113.203 423.387 113.203C418.908 113.203 415.277 116.836 415.277 121.317C415.277 125.798 418.908 129.43 423.387 129.43Z" fill="#111111"/>
<path d="M322.014 196.477C326.493 196.477 330.124 192.844 330.124 188.363C330.124 183.882 326.493 180.25 322.014 180.25C317.535 180.25 313.904 183.882 313.904 188.363C313.904 192.844 317.535 196.477 322.014 196.477Z" fill="#111111"/>
<path d="M355.805 196.477C360.284 196.477 363.915 192.844 363.915 188.363C363.915 183.882 360.284 180.25 355.805 180.25C351.326 180.25 347.695 183.882 347.695 188.363C347.695 192.844 351.326 196.477 355.805 196.477Z" fill="#111111"/>
<path d="M389.596 230C394.075 230 397.706 226.367 397.706 221.886C397.706 217.405 394.075 213.773 389.596 213.773C385.117 213.773 381.486 217.405 381.486 221.886C381.486 226.367 385.117 230 389.596 230Z" fill="#111111"/>
<path d="M423.387 230C427.866 230 431.497 226.367 431.497 221.886C431.497 217.405 427.866 213.773 423.387 213.773C418.908 213.773 415.277 217.405 415.277 221.886C415.277 226.367 418.908 230 423.387 230Z" fill="#111111"/>
<path d="M457.178 230C461.657 230 465.288 226.367 465.288 221.886C465.288 217.405 461.657 213.773 457.178 213.773C452.699 213.773 449.068 217.405 449.068 221.886C449.068 226.367 452.699 230 457.178 230Z" fill="#111111"/>
<path d="M253.966 5.99444C253.785 6.1753 253.683 6.42059 253.683 6.67636C253.683 6.93214 253.785 7.17745 253.966 7.35833L253.966 7.35841L258.104 11.4987H247.899C247.644 11.4994 247.399 11.6014 247.219 11.7822C247.039 11.9629 246.938 12.2078 246.938 12.4631C246.938 12.7184 247.039 12.9633 247.219 13.1441C247.399 13.3249 247.644 13.4268 247.899 13.4276H258.104L253.966 17.5679C253.785 17.7487 253.683 17.994 253.683 18.2498C253.683 18.5056 253.785 18.7509 253.966 18.9318C254.146 19.1127 254.392 19.2143 254.647 19.2143C254.903 19.2143 255.148 19.1127 255.329 18.9318L261.113 13.1451C261.294 12.9642 261.395 12.7189 261.395 12.4631C261.395 12.2073 261.294 11.962 261.113 11.7812L255.329 5.99444C255.148 5.81359 254.903 5.71199 254.647 5.71199C254.392 5.71199 254.146 5.81359 253.966 5.99444H253.966Z" fill="white"/>
<path d="M498.377 138.626H280.62C279.777 138.626 279.094 138.257 279.094 137.802C279.094 137.347 279.777 136.978 280.62 136.978H498.377C499.22 136.978 499.903 137.347 499.903 137.802C499.903 138.257 499.22 138.626 498.377 138.626Z" fill="#E6E6E6"/>
<path d="M498.377 102.211H280.62C279.777 102.211 279.094 101.842 279.094 101.387C279.094 100.932 279.777 100.563 280.62 100.563H498.377C499.22 100.563 499.903 100.932 499.903 101.387C499.903 101.842 499.22 102.211 498.377 102.211Z" fill="#E6E6E6"/>
<path d="M499.079 172.639H280.114C279.895 172.639 279.685 172.552 279.531 172.397C279.376 172.243 279.29 172.033 279.29 171.814C279.29 171.596 279.376 171.386 279.531 171.231C279.685 171.077 279.895 170.99 280.114 170.99H499.079C499.297 170.99 499.507 171.077 499.661 171.231C499.816 171.386 499.903 171.596 499.903 171.814C499.903 172.033 499.816 172.243 499.661 172.397C499.507 172.552 499.297 172.639 499.079 172.639Z" fill="#E6E6E6"/>
<path d="M499.079 205.61H280.114C279.895 205.61 279.685 205.523 279.531 205.368C279.376 205.214 279.29 205.004 279.29 204.786C279.29 204.567 279.376 204.357 279.531 204.203C279.685 204.048 279.895 203.961 280.114 203.961H499.079C499.297 203.961 499.507 204.048 499.661 204.203C499.816 204.357 499.903 204.567 499.903 204.786C499.903 205.004 499.816 205.214 499.661 205.368C499.507 205.523 499.297 205.61 499.079 205.61Z" fill="#E6E6E6"/>
<path d="M499.079 239.406H280.114C279.895 239.406 279.685 239.319 279.531 239.164C279.376 239.01 279.29 238.8 279.29 238.581C279.29 238.363 279.376 238.153 279.531 237.998C279.685 237.844 279.895 237.757 280.114 237.757H499.079C499.297 237.757 499.507 237.844 499.661 237.998C499.816 238.153 499.903 238.363 499.903 238.581C499.903 238.8 499.816 239.01 499.661 239.164C499.507 239.319 499.297 239.406 499.079 239.406Z" fill="#E6E6E6"/>
<path d="M473.539 237.707V101.898C473.539 101.616 473.907 101.387 474.362 101.387C474.817 101.387 475.186 101.616 475.186 101.898V237.707C475.186 237.989 474.817 238.218 474.362 238.218C473.907 238.218 473.539 237.989 473.539 237.707Z" fill="#E6E6E6"/>
<path d="M439.758 237.707V101.898C439.758 101.616 440.127 101.387 440.582 101.387C441.037 101.387 441.406 101.616 441.406 101.898V237.707C441.406 237.989 441.037 238.218 440.582 238.218C440.127 238.218 439.758 237.989 439.758 237.707Z" fill="#E6E6E6"/>
<path d="M405.977 237.707V101.898C405.977 101.616 406.346 101.387 406.801 101.387C407.256 101.387 407.625 101.616 407.625 101.898V237.707C407.625 237.989 407.256 238.218 406.801 238.218C406.346 238.218 405.977 237.989 405.977 237.707Z" fill="#E6E6E6"/>
<path d="M373.021 237.707V101.898C373.021 101.616 373.39 101.387 373.845 101.387C374.3 101.387 374.669 101.616 374.669 101.898V237.707C374.669 237.989 374.3 238.218 373.845 238.218C373.39 238.218 373.021 237.989 373.021 237.707Z" fill="#E6E6E6"/>
<path d="M338.416 272.197V102.027C338.463 101.844 338.569 101.682 338.718 101.566C338.868 101.45 339.051 101.387 339.24 101.387C339.429 101.387 339.613 101.45 339.762 101.566C339.911 101.682 340.017 101.844 340.064 102.027V272.197C340.017 272.381 339.911 272.543 339.762 272.659C339.613 272.775 339.429 272.838 339.24 272.838C339.051 272.838 338.868 272.775 338.718 272.659C338.569 272.543 338.463 272.381 338.416 272.197Z" fill="#E6E6E6"/>
<path d="M303.812 272.197V102.027C303.858 101.844 303.965 101.682 304.114 101.566C304.263 101.45 304.447 101.387 304.636 101.387C304.825 101.387 305.008 101.45 305.157 101.566C305.306 101.682 305.413 101.844 305.46 102.027V272.197C305.413 272.381 305.306 272.543 305.157 272.659C305.008 272.775 304.825 272.838 304.636 272.838C304.447 272.838 304.263 272.775 304.114 272.659C303.965 272.543 303.858 272.381 303.812 272.197Z" fill="#E6E6E6"/>
<path d="M280.113 273.202C279.895 273.202 279.685 273.116 279.53 272.961C279.376 272.807 279.288 272.598 279.288 272.379C279.287 272.16 279.374 271.951 279.528 271.796C279.682 271.641 279.891 271.553 280.11 271.553L363.954 271.189C364.171 271.194 364.378 271.281 364.532 271.434C364.686 271.587 364.775 271.793 364.781 272.01C364.782 272.118 364.761 272.226 364.72 272.326C364.679 272.426 364.619 272.517 364.543 272.594C364.466 272.671 364.376 272.732 364.276 272.774C364.176 272.816 364.069 272.837 363.961 272.838L280.117 273.202H280.113Z" fill="#E6E6E6"/>
<path d="M341.413 66.0895C341.194 66.0897 340.985 66.003 340.83 65.8485C340.676 65.6941 340.589 65.4845 340.588 65.2659C340.588 65.0472 340.675 64.8375 340.829 64.6828C340.984 64.5281 341.193 64.4411 341.412 64.441L459.006 64.2941H459.007C459.225 64.2939 459.435 64.3806 459.59 64.5351C459.744 64.6895 459.831 64.8991 459.831 65.1177C459.832 65.3364 459.745 65.5461 459.591 65.7008C459.436 65.8555 459.227 65.9425 459.008 65.9426L341.414 66.0895H341.413Z" fill="#E6E6E6"/>
<path d="M381.231 334.826C377.966 334.826 374.774 333.858 372.06 332.043C369.345 330.228 367.229 327.649 365.98 324.631C364.73 321.614 364.403 318.293 365.04 315.089C365.677 311.886 367.249 308.943 369.558 306.634C371.867 304.324 374.808 302.751 378.01 302.114C381.212 301.477 384.531 301.804 387.548 303.054C390.564 304.304 393.142 306.42 394.956 309.136C396.77 311.852 397.738 315.045 397.738 318.311C397.738 320.48 397.311 322.628 396.482 324.631C395.652 326.635 394.436 328.456 392.903 329.989C391.37 331.523 389.551 332.739 387.548 333.569C385.545 334.399 383.398 334.826 381.231 334.826Z" fill="#E6E6E6"/>
<path d="M387.744 316.682H382.859V311.795C382.859 311.363 382.688 310.949 382.382 310.643C382.077 310.338 381.663 310.166 381.231 310.166C380.799 310.166 380.385 310.338 380.079 310.643C379.774 310.949 379.602 311.363 379.602 311.795V316.682H374.717C374.285 316.682 373.871 316.854 373.566 317.16C373.26 317.465 373.089 317.879 373.089 318.311C373.089 318.744 373.26 319.158 373.566 319.463C373.871 319.769 374.285 319.941 374.717 319.941H379.602V324.828C379.602 325.042 379.644 325.254 379.725 325.452C379.807 325.65 379.927 325.83 380.078 325.982C380.229 326.134 380.409 326.254 380.607 326.336C380.805 326.418 381.017 326.461 381.231 326.461C381.445 326.461 381.657 326.418 381.855 326.336C382.053 326.254 382.232 326.134 382.383 325.982C382.535 325.83 382.655 325.65 382.736 325.452C382.818 325.254 382.86 325.042 382.859 324.828V319.941H387.744C388.176 319.941 388.59 319.769 388.896 319.463C389.201 319.158 389.372 318.744 389.372 318.311C389.372 317.879 389.201 317.465 388.896 317.16C388.59 316.854 388.176 316.682 387.744 316.682Z" fill="white"/>
<path d="M419.131 334.826C415.866 334.826 412.674 333.858 409.96 332.043C407.245 330.228 405.129 327.649 403.88 324.631C402.63 321.614 402.304 318.293 402.941 315.089C403.578 311.886 405.15 308.943 407.458 306.634C409.767 304.324 412.708 302.751 415.91 302.114C419.113 301.477 422.432 301.804 425.448 303.054C428.464 304.304 431.043 306.42 432.856 309.136C434.67 311.852 435.638 315.045 435.638 318.311C435.638 320.48 435.211 322.628 434.382 324.631C433.552 326.635 432.336 328.456 430.803 329.989C429.271 331.523 427.451 332.739 425.448 333.569C423.445 334.399 421.299 334.826 419.131 334.826Z" fill="#E6E6E6"/>
<path d="M427.486 325.339L423.186 320.303C424.193 318.878 424.63 317.127 424.411 315.396C424.193 313.664 423.334 312.077 422.005 310.947C420.676 309.817 418.972 309.225 417.229 309.289C415.485 309.352 413.829 310.066 412.586 311.29C411.342 312.514 410.601 314.159 410.509 315.902C410.417 317.645 410.981 319.359 412.088 320.707C413.196 322.055 414.768 322.94 416.495 323.187C418.222 323.434 419.979 323.025 421.419 322.041L425.606 326.945C425.82 327.193 426.122 327.345 426.448 327.37C426.774 327.395 427.096 327.29 427.345 327.078C427.593 326.865 427.747 326.563 427.774 326.238C427.8 325.912 427.697 325.589 427.486 325.339ZM412.951 316.251C412.951 315.354 413.217 314.478 413.715 313.732C414.213 312.986 414.921 312.405 415.749 312.062C416.577 311.719 417.488 311.629 418.367 311.804C419.246 311.979 420.054 312.411 420.687 313.045C421.321 313.679 421.753 314.487 421.928 315.366C422.102 316.246 422.013 317.157 421.67 317.986C421.327 318.814 420.746 319.522 420.001 320.02C419.255 320.518 418.379 320.784 417.483 320.784C416.282 320.783 415.13 320.305 414.28 319.455C413.431 318.605 412.953 317.453 412.951 316.251Z" fill="white"/>
<path d="M341.413 336.455C341.194 336.455 340.985 336.368 340.83 336.214C340.676 336.059 340.589 335.85 340.588 335.631C340.588 335.413 340.675 335.203 340.829 335.048C340.984 334.893 341.193 334.806 341.412 334.806L459.006 334.659H459.007C459.225 334.659 459.435 334.745 459.59 334.9C459.744 335.054 459.831 335.264 459.831 335.483C459.832 335.701 459.745 335.911 459.591 336.066C459.436 336.22 459.227 336.307 459.008 336.308L341.414 336.455H341.413Z" fill="#E6E6E6"/>
<path d="M190.927 444.298L201.438 444.298L206.438 403.74L190.926 403.741L190.927 444.298Z" fill="#FFB6B6"/>
<path d="M188.25 440.864V454.489H222.138V454.061C222.137 450.561 220.747 447.205 218.274 444.73C215.8 442.255 212.445 440.865 208.947 440.864L202.751 436.166L202.43 436.298L191.208 440.864H188.25Z" fill="#2F2E41"/>
<path d="M95.96 430.628L105.367 435.318L127.926 401.251L114.043 394.329L95.96 430.628Z" fill="#FFB6B6"/>
<path d="M89.0177 438.556L119.346 453.673L119.536 453.294C120.309 451.744 120.77 450.056 120.892 448.327C121.013 446.598 120.793 444.863 120.243 443.219C119.694 441.576 118.826 440.056 117.69 438.749C116.553 437.441 115.17 436.37 113.62 435.597L110.168 428.632L109.805 428.607L97.743 427.675L97.4958 427.552L95.0899 426.357L89.0177 438.556Z" fill="#2F2E41"/>
<path d="M198.056 226.303L140.101 228.333L139.697 227.746C139.697 227.746 134.753 239.286 134.753 249.177C134.753 252.466 137.04 273.976 135.877 278.045C135.733 278.551 136.727 279.792 136.401 282.148C136.19 283.678 135.022 282.501 134.753 284.621C134.561 286.143 136.616 286.983 136.401 288.743C136.166 290.665 133.339 296.894 133.084 299.033C130.375 321.804 126.767 354.794 126.767 354.794C126.767 354.794 112.277 393.62 109.212 394.251C104.067 395.31 100.593 404.669 103.444 406.615C104.802 407.542 122.349 413.777 122.349 413.777C123.313 413.952 126.329 412.438 124.408 408.859C124.054 408.2 126.164 409.877 126.514 409.088C126.887 408.249 126.155 404.911 126.582 403.98C130.417 395.619 136.304 384.033 141.884 378.083C150.128 369.293 155.348 358.098 156.784 346.13L169.582 275.138L173.968 295.046L177.597 298.634L176.601 307L176.773 315.12L185.836 348.915C185.836 348.915 187.195 412.029 185.012 414.034C183.83 415.119 178.813 428.49 188.308 429.695L205.559 428.363C205.559 428.363 207.884 423.463 206.722 421.719C205.559 419.975 205.629 420.451 207.047 417.597C208.465 414.743 207.884 409.906 207.884 409.906C210.144 387.177 211.035 364.333 210.554 341.497C209.689 303.989 204.448 260.901 204.448 260.023C204.404 259.125 204.57 258.23 204.931 257.407V255.04L202.705 246.651L198.056 226.303Z" fill="#2F2E41"/>
<path d="M123.024 247.393C122.538 246.562 122.24 245.635 122.151 244.676C122.062 243.718 122.184 242.751 122.509 241.845C122.834 240.939 123.353 240.115 124.031 239.432C124.708 238.748 125.527 238.221 126.43 237.889L126.013 196.228L136.285 202.729L135.104 242.214C135.562 243.768 135.434 245.437 134.745 246.904C134.056 248.37 132.852 249.533 131.363 250.171C129.874 250.81 128.203 250.879 126.666 250.367C125.129 249.855 123.833 248.797 123.024 247.393Z" fill="#FFB8B8"/>
<path d="M125.369 229.929L126.243 229.886L126.347 229.889L129.582 229.878L134.91 229.867L135.296 229.861L135.469 229.894L137.288 230.211L137.364 229.722L140.909 222.947L143.635 219.196L142.643 214.777L140.687 212.339L144.009 208.312L144.429 206.323L147.209 193.241L156.426 149.852L156.426 149.826L156.62 148.906L159.617 134.81L158.694 131.265L157.665 127.374C157.007 124.904 155.481 122.753 153.367 121.316C152.45 120.695 151.44 120.223 150.375 119.918C149.018 119.516 147.593 119.398 146.188 119.573L146.172 119.578C145.375 119.677 144.592 119.867 143.838 120.142L143.538 120.26C143.12 120.429 142.714 120.625 142.321 120.846C141.103 121.523 140.033 122.436 139.171 123.531C138.31 124.626 137.675 125.882 137.303 127.225L127.537 138.108L125.82 144.266L125.267 146.243L123.497 156.786L123.523 198.275L123.208 200.154L122.76 210.57L124.511 212.957L122.533 215.852L122.465 217.441L122.452 217.85L125.094 220.534L125.263 226.325L125.369 229.929Z" fill="#3F3D56"/>
<path d="M134.909 239.866C149.542 242.398 159.355 241.434 165.393 232.448C173.272 222.412 187.599 234.262 199.687 238.668L201.121 237.119L203.56 234.489L201.319 231.95L203.56 227.054L201.689 221.012L199.3 220.575L199.943 215.374L200.948 212.332L197.998 209.093L195.494 201.007L197.298 184.084C199.767 160.888 194.983 137.497 183.604 117.136L176.758 110.987L173.915 108.432L170.1 101.31L166.071 101.78L155.163 103.041L154.792 103.931L152.114 110.393L142.387 120.847C141.011 122.326 139.965 124.08 139.32 125.995C138.675 127.909 138.444 129.938 138.643 131.948L138.923 134.767L139.129 136.795L140.102 146.555L144.065 186.425L144.361 188.544L147.55 211.467C142.367 216.479 142.052 215.385 139.852 224.205C139.605 225.186 136.738 227.37 136.556 228.326C136.301 229.678 134.909 239.866 134.909 239.866Z" fill="#3F3D56"/>
<path d="M164.62 97.1085C175.084 97.1085 183.567 88.6219 183.567 78.1531C183.567 67.6844 175.084 59.1978 164.62 59.1978C154.156 59.1978 145.673 67.6844 145.673 78.1531C145.673 88.6219 154.156 97.1085 164.62 97.1085Z" fill="#FFB6B6"/>
<path d="M144.797 63.884C147.34 61.2349 151.403 59.9283 154.853 61.1854C155.624 58.9769 156.986 57.0226 158.791 55.5351C160.596 54.0476 162.774 53.084 165.088 52.7492C167.403 52.4143 169.764 52.7212 171.916 53.6362C174.068 54.5513 175.928 56.0395 177.294 57.9388C177.918 57.6584 178.604 57.5439 179.285 57.6066C179.967 57.6692 180.62 57.9068 181.183 58.2964C182.3 59.0911 183.2 60.1536 183.801 61.3865C185.35 64.3306 186.072 67.6399 185.89 70.9621C185.708 74.2842 184.629 77.4949 182.768 80.2523C183.51 78.7545 181.425 81.3342 179.393 80.6583C177.648 80.2007 170.478 75.6015 168.689 75.834C166.9 76.0665 166.32 74.6231 164.57 74.1855C162.855 73.6369 158.479 80.7265 157.602 85.4175C157.436 86.3065 157.033 87.411 156.129 87.4312C155.016 87.4562 154.683 85.8614 153.744 85.2625C153.301 85.0374 152.789 84.9929 152.314 85.1384C151.839 85.2839 151.44 85.6081 151.199 86.0427C150.98 86.4893 150.87 86.9818 150.88 87.4794C150.889 87.977 151.017 88.4651 151.253 88.9032C151.732 89.774 152.35 90.5616 153.08 91.2355L152.594 91.5028C152.115 91.8459 151.532 92.0117 150.945 91.9718C150.357 91.9319 149.802 91.6887 149.373 91.284C147.564 92.1008 142.642 87.4946 143.296 84.7078C141.921 81.2918 141.17 77.6572 141.077 73.9762C141.001 70.2632 142.33 66.6585 144.797 63.884Z" fill="#2F2E41"/>
<path d="M283.784 176.872C282.867 177.162 281.897 177.246 280.943 177.12C279.989 176.994 279.075 176.66 278.264 176.142C277.453 175.624 276.765 174.934 276.25 174.121C275.734 173.309 275.403 172.393 275.279 171.438L234.587 162.583L243.205 154.01L281.423 163.939C283.039 163.837 284.637 164.333 285.913 165.331C287.189 166.33 288.055 167.762 288.346 169.356C288.637 170.95 288.333 172.596 287.493 173.981C286.652 175.367 285.333 176.395 283.784 176.872Z" fill="#FFB8B8"/>
<path d="M173.815 118.102C171.456 118.188 169.193 119.058 167.384 120.574C166.383 121.405 165.548 122.417 164.924 123.558C164.237 124.796 163.808 126.161 163.664 127.569L163.664 127.577C163.454 129.652 163.861 131.742 164.837 133.585C165.812 135.428 167.311 136.94 169.145 137.932L182.55 145.199L184.248 146.118C195.669 157.764 214.928 163.852 237.084 167.891L249.822 171.377L254.104 169.787L255.141 173.86L259.405 174L261.723 173.518L266.575 171.614L267.501 169.75L267.5 169.742L269.491 160.906L269.505 160.847L269.504 160.839L269.969 158.817L267.233 157.551L264.853 154.37L260.55 154.457L256.625 154.799L255.475 152.108L205.745 129.086L195.448 124.314L195.423 124.299L194.932 124.068L181.499 117.851L177.842 117.967L173.815 118.102Z" fill="#3F3D56"/>
<path d="M282.487 187.13C286.966 187.13 290.597 183.497 290.597 179.017C290.597 174.536 286.966 170.903 282.487 170.903C278.008 170.903 274.377 174.536 274.377 179.017C274.377 183.497 278.008 187.13 282.487 187.13Z" fill="#111111"/>
<path d="M50.006 450.314C44.0561 450.839 38.0642 450.027 32.468 447.939C26.8717 445.85 21.8124 442.537 17.6597 438.242C12.2296 432.515 8.50329 425.143 4.8996 418.013C3.85058 415.939 2.76624 413.793 1.66308 411.737C0.433176 409.495 -0.09763 406.936 0.13904 404.39C0.375709 401.844 1.36901 399.427 2.99098 397.451C4.54533 395.475 6.65547 394.01 9.04951 393.245C11.4435 392.479 14.0118 392.449 16.4233 393.157L16.9492 393.309L21.6819 411.785C22.3879 409.029 23.9034 402.82 24.8604 396.736L24.9408 396.227L25.4121 396.437C30.3538 398.624 35.0005 401.426 39.2425 404.775C46.7574 410.805 52.8694 418.401 57.1539 427.033C61.4383 435.665 63.7924 445.127 64.0525 454.762L64.065 455.336L50.006 450.314Z" fill="#F2F2F2"/>
<path d="M230.648 455.747L0.981033 456C0.72085 456 0.471314 455.897 0.287336 455.712C0.103359 455.528 3.8147e-06 455.279 3.8147e-06 455.019C3.8147e-06 454.758 0.103359 454.509 0.287336 454.325C0.471314 454.14 0.72085 454.037 0.981033 454.037L230.648 453.784C230.908 453.785 231.156 453.888 231.34 454.072C231.523 454.256 231.626 454.505 231.626 454.765C231.626 455.025 231.523 455.274 231.34 455.458C231.156 455.642 230.908 455.746 230.648 455.747Z" fill="#CACACA"/>
<path d="M422.044 55.079H378.376C377.393 55.079 376.45 54.6882 375.754 53.9926C375.059 53.297 374.668 52.3535 374.668 51.3698C374.668 50.386 375.059 49.4425 375.754 48.7469C376.45 48.0513 377.393 47.6605 378.376 47.6605H422.044C423.027 47.6605 423.97 48.0513 424.665 48.7469C425.361 49.4425 425.751 50.386 425.751 51.3698C425.751 52.3535 425.361 53.297 424.665 53.9926C423.97 54.6882 423.027 55.079 422.044 55.079Z" fill="#E6E6E6"/>
<path d="M559.583 23.5803C557.788 23.5803 556.033 23.0477 554.54 22.0497C553.047 21.0518 551.884 19.6335 551.197 17.974C550.51 16.3145 550.33 14.4885 550.68 12.7268C551.03 10.9652 551.895 9.34696 553.164 8.07686C554.434 6.80676 556.051 5.94181 557.812 5.59139C559.573 5.24097 561.398 5.42082 563.057 6.10819C564.716 6.79556 566.134 7.95959 567.131 9.45307C568.129 10.9465 568.661 12.7024 568.661 14.4986C568.661 16.9072 567.705 19.2172 566.002 20.9203C564.3 22.6235 561.991 23.5803 559.583 23.5803Z" fill="#E6E6E6"/>
</g>
<defs>
<clipPath id="clip0_115_50">
<rect width="579" height="456" fill="white"/>
</clipPath>
</defs>
</svg>
