<svg width="44" height="44" viewBox="0 0 44 44" fill="none" xmlns="http://www.w3.org/2000/svg">
<path d="M3.66669 16.5C3.66669 21.3623 5.59823 26.0255 9.0364 29.4636C12.4746 32.9018 17.1377 34.8333 22 34.8333C26.8623 34.8333 31.5255 32.9018 34.9636 29.4636C38.4018 26.0255 40.3334 21.3623 40.3334 16.5" stroke="#111111" stroke-width="2.75" stroke-linecap="round" stroke-linejoin="round"/>
<path d="M22 34.8333C22 29.971 23.9315 25.3079 27.3697 21.8697C30.8079 18.4315 35.471 16.5 40.3333 16.5" stroke="#111111" stroke-width="2.75" stroke-linecap="round" stroke-linejoin="round"/>
<path d="M3.66669 16.5C6.07425 16.5 8.45825 16.9742 10.6825 17.8955C12.9069 18.8169 14.9279 20.1673 16.6303 21.8697C18.3327 23.5721 19.6831 25.5932 20.6045 27.8175C21.5258 30.0418 22 32.4258 22 34.8333" stroke="#111111" stroke-width="2.75" stroke-linecap="round" stroke-linejoin="round"/>
<path d="M22 7.33334C23.8476 9.09711 25.2935 11.2382 26.2395 13.6109C27.1854 15.9836 27.6091 18.5322 27.4817 21.0833" stroke="#111111" stroke-width="2.75" stroke-linecap="round" stroke-linejoin="round"/>
<path d="M16.5183 21.0833C16.391 18.5322 16.8146 15.9836 17.7606 13.6109C18.7065 11.2382 20.1524 9.09711 22 7.33334" stroke="#111111" stroke-width="2.75" stroke-linecap="round" stroke-linejoin="round"/>
</svg>
