<svg width="580" height="438" viewBox="0 0 580 438" fill="none" xmlns="http://www.w3.org/2000/svg">
<g clip-path="url(#clip0_221_736)">
<path d="M239.068 303.473C239.068 318.589 227.324 330.843 212.836 330.843C198.348 330.843 186.604 318.589 186.604 303.473C186.604 303.13 186.609 302.79 186.623 302.45C186.889 287.336 198.851 275.313 213.336 275.596C227.821 275.878 239.343 288.359 239.072 303.473H239.068Z" fill="#2F2E41"/>
<path d="M203.599 315.628L196.043 305.559L197.832 304.217L203.988 312.42L228.221 292.604L229.638 294.335L203.599 315.628Z" fill="white"/>
<path d="M580 436.429H0V438H580V436.429Z" fill="#E6E6E6"/>
<path d="M381.883 153.885C382.426 154.133 382.948 154.424 383.444 154.755L433.062 133.588L434.833 120.524L454.659 120.402L453.488 150.368L387.996 167.681C387.858 168.136 387.693 168.582 387.5 169.017C386.553 171.036 385.031 172.731 383.123 173.888C381.216 175.045 379.009 175.613 376.779 175.521C374.55 175.428 372.398 174.68 370.592 173.369C368.787 172.058 367.41 170.243 366.634 168.152C365.857 166.061 365.716 163.787 366.228 161.617C366.74 159.446 367.882 157.475 369.512 155.951C371.141 154.427 373.184 153.418 375.385 153.051C377.586 152.684 379.846 152.975 381.882 153.888L381.883 153.885Z" fill="#FFB6B6"/>
<path d="M461.869 425.412H448.306L441.854 373.124H461.871L461.869 425.412Z" fill="#A0616A"/>
<path d="M438.619 421.539H464.775V437.995H422.149C422.149 433.629 423.885 429.442 426.973 426.355C430.062 423.268 434.251 421.534 438.619 421.534V421.539Z" fill="#2F2E41"/>
<path d="M514.616 421.582L501.12 422.909L489.571 371.505L509.491 369.548L514.616 421.582Z" fill="#A0616A"/>
<path d="M491.09 420.008L517.116 417.445L518.73 433.824L476.319 438C475.891 433.656 477.206 429.321 479.976 425.946C482.746 422.572 486.744 420.436 491.089 420.008H491.09Z" fill="#2F2E41"/>
<path d="M465.644 65.0628C480.65 65.0628 492.815 52.9037 492.815 37.9047C492.815 22.9057 480.65 10.7466 465.644 10.7466C450.638 10.7466 438.473 22.9057 438.473 37.9047C438.473 52.9037 450.638 65.0628 465.644 65.0628Z" fill="#FFB6B6"/>
<path d="M445.275 414.838C444.109 414.84 442.98 414.431 442.086 413.682C441.193 412.934 440.592 411.894 440.39 410.746C433.375 371.803 410.424 244.441 409.875 240.91C409.862 240.829 409.856 240.747 409.857 240.665V231.168C409.856 230.822 409.964 230.485 410.165 230.204L413.197 225.963C413.341 225.759 413.53 225.59 413.749 225.471C413.969 225.351 414.213 225.283 414.462 225.272C431.747 224.462 488.344 222.088 491.078 225.503C493.824 228.931 492.848 239.333 492.627 241.382L492.638 241.595L518.067 404.139C518.266 405.435 517.946 406.758 517.177 407.821C516.407 408.884 515.25 409.6 513.955 409.817L498.074 412.432C496.891 412.622 495.679 412.381 494.659 411.753C493.639 411.126 492.878 410.153 492.514 409.012C487.602 393.323 471.131 340.546 465.423 320.123C465.392 319.989 465.312 319.871 465.198 319.792C465.084 319.714 464.944 319.682 464.808 319.702C464.671 319.722 464.547 319.792 464.46 319.899C464.373 320.006 464.329 320.142 464.338 320.28C464.623 339.748 465.312 389.415 465.555 406.57L465.58 408.418C465.59 409.669 465.131 410.878 464.293 411.807C463.454 412.735 462.298 413.316 461.052 413.434L445.738 414.82C445.584 414.834 445.429 414.84 445.275 414.838Z" fill="#2F2E41"/>
<path d="M448.4 75.7422C443.659 78.5599 440.821 83.7366 439.193 89.0138C436.179 98.7676 434.364 108.852 433.79 119.045L432.069 149.561L410.767 230.47C429.23 246.084 439.878 242.534 464.731 229.763C489.585 216.991 492.423 234.021 492.423 234.021L497.393 165.179L504.493 89.9523C502.899 88.0341 501.095 86.3006 499.114 84.7842C492.551 79.6823 484.916 76.1357 476.783 74.4118C468.649 72.6879 460.231 72.8316 452.161 74.832L448.4 75.7422Z" fill="#2F2E41"/>
<path d="M441.482 170.225C442.054 170.439 442.609 170.698 443.141 170.999L492.204 146.451L493.018 133.154L513.256 131.759L514.34 162.072L448.776 183.746C448.241 186.043 447.019 188.122 445.273 189.707C443.527 191.293 441.339 192.309 439.001 192.621C436.663 192.934 434.285 192.527 432.184 191.455C430.083 190.383 428.358 188.698 427.238 186.622C426.119 184.547 425.659 182.18 425.918 179.836C426.178 177.492 427.145 175.283 428.692 173.503C430.238 171.722 432.29 170.455 434.575 169.868C436.86 169.282 439.269 169.405 441.483 170.221L441.482 170.225Z" fill="#FFB6B6"/>
<path d="M504.139 90.2907C516.21 94.5486 518.337 140.684 518.337 140.684C504.136 132.878 487.095 145.652 487.095 145.652C487.095 145.652 483.545 133.586 479.284 117.973C477.998 113.582 477.844 108.936 478.837 104.468C479.83 100.001 481.938 95.8577 484.964 92.4236C484.964 92.4236 492.067 86.0304 504.139 90.2907Z" fill="#2F2E41"/>
<path d="M490.003 45.0848C486.617 42.3779 481.999 47.2962 481.999 47.2962L479.291 22.9393C479.291 22.9393 462.365 24.9661 451.53 22.2623C440.695 19.5585 439.004 32.0786 439.004 32.0786C438.445 27.0224 438.332 21.9269 438.665 16.8508C439.342 10.76 448.143 4.66921 463.716 0.608412C479.289 -3.45239 487.414 14.1439 487.414 14.1439C498.253 19.5538 493.392 47.7949 490.003 45.0848Z" fill="#2F2E41"/>
<path d="M126.595 35.772C125.949 35.7731 125.329 36.0307 124.872 36.4882C124.415 36.9457 124.158 37.5656 124.158 38.212C124.158 38.8584 124.415 39.4784 124.872 39.9359C125.329 40.3933 125.949 40.6509 126.595 40.6521H304.832C305.479 40.6509 306.099 40.3933 306.556 39.9359C307.012 39.4784 307.269 38.8584 307.269 38.212C307.269 37.5656 307.012 36.9457 306.556 36.4882C306.099 36.0307 305.479 35.7731 304.832 35.772H126.595Z" fill="#CCCCCC"/>
<path d="M126.595 50.4121C125.948 50.4117 125.328 50.6678 124.87 51.1244C124.412 51.5809 124.154 52.2005 124.152 52.847C124.151 53.4936 124.406 54.1142 124.863 54.5727C125.319 55.0312 125.938 55.2899 126.585 55.2922H239.268C239.589 55.2922 239.906 55.2291 240.202 55.1065C240.499 54.9839 240.768 54.8041 240.994 54.5775C241.221 54.351 241.401 54.082 241.524 53.7859C241.646 53.4899 241.709 53.1726 241.709 52.8522C241.709 52.5317 241.646 52.2144 241.524 51.9184C241.401 51.6223 241.221 51.3534 240.994 51.1268C240.768 50.9002 240.499 50.7205 240.202 50.5978C239.906 50.4752 239.589 50.4121 239.268 50.4121H126.595Z" fill="#CCCCCC"/>
<path d="M302.598 17.1191C302.598 23.0358 298.001 27.8322 292.331 27.8322C286.66 27.8322 282.063 23.0358 282.063 17.1191C282.063 16.985 282.066 16.8518 282.071 16.7188C282.175 10.8033 286.857 6.09748 292.526 6.20796C298.196 6.31844 302.706 11.2036 302.6 17.1191H302.598Z" fill="#2F2E41"/>
<path d="M288.715 21.877L285.758 17.9358L286.458 17.4104L288.868 20.6212L298.353 12.8652L298.907 13.5427L288.715 21.877Z" fill="white"/>
<path d="M126.595 125.296C125.949 125.298 125.329 125.555 124.872 126.013C124.415 126.47 124.158 127.09 124.158 127.736C124.158 128.383 124.415 129.003 124.872 129.46C125.329 129.918 125.949 130.175 126.595 130.177H304.832C305.479 130.175 306.099 129.918 306.556 129.46C307.012 129.003 307.269 128.383 307.269 127.736C307.269 127.09 307.012 126.47 306.556 126.013C306.099 125.555 305.479 125.298 304.832 125.296H126.595Z" fill="#CCCCCC"/>
<path d="M126.595 139.937C125.948 139.936 125.328 140.192 124.87 140.649C124.412 141.105 124.154 141.725 124.152 142.371C124.151 143.018 124.406 143.639 124.863 144.097C125.319 144.556 125.938 144.814 126.585 144.817H239.268C239.916 144.817 240.537 144.56 240.994 144.102C241.452 143.644 241.709 143.024 241.709 142.377C241.709 141.729 241.452 141.109 240.994 140.651C240.537 140.194 239.916 139.937 239.268 139.937H126.595Z" fill="#CCCCCC"/>
<path d="M301.812 106.644C301.812 112.56 297.216 117.357 291.545 117.357C285.875 117.357 281.278 112.56 281.278 106.644C281.278 106.509 281.28 106.376 281.285 106.243C281.39 100.328 286.071 95.6219 291.741 95.7324C297.41 95.8429 301.92 100.728 301.814 106.644H301.812Z" fill="#2F2E41"/>
<path d="M287.93 111.401L284.972 107.46L285.673 106.935L288.082 110.146L297.567 102.39L298.122 103.067L287.93 111.401Z" fill="white"/>
<path d="M126.595 214.821C125.949 214.822 125.329 215.08 124.872 215.537C124.415 215.995 124.158 216.614 124.158 217.261C124.158 217.907 124.415 218.527 124.872 218.985C125.329 219.442 125.949 219.7 126.595 219.701H304.832C305.479 219.7 306.099 219.442 306.556 218.985C307.012 218.527 307.269 217.907 307.269 217.261C307.269 216.614 307.012 215.995 306.556 215.537C306.099 215.08 305.479 214.822 304.832 214.821H126.595Z" fill="#CCCCCC"/>
<path d="M126.595 229.461C125.948 229.461 125.328 229.717 124.87 230.174C124.412 230.63 124.154 231.25 124.152 231.896C124.151 232.543 124.406 233.164 124.863 233.622C125.319 234.08 125.938 234.339 126.585 234.342H239.268C239.916 234.342 240.537 234.084 240.994 233.627C241.452 233.169 241.709 232.549 241.709 231.901C241.709 231.254 241.452 230.634 240.994 230.176C240.537 229.719 239.916 229.461 239.268 229.461H126.595Z" fill="#CCCCCC"/>
<path d="M301.812 196.168C301.812 202.085 297.216 206.881 291.545 206.881C285.875 206.881 281.278 202.085 281.278 196.168C281.278 196.034 281.28 195.901 281.285 195.768C281.39 189.852 286.071 185.146 291.741 185.257C297.41 185.367 301.92 190.252 301.814 196.168H301.812Z" fill="#2F2E41"/>
<path d="M287.93 200.926L284.972 196.985L285.673 196.459L288.082 199.67L297.567 191.914L298.122 192.591L287.93 200.926Z" fill="white"/>
</g>
<defs>
<clipPath id="clip0_221_736">
<rect width="580" height="438" fill="white"/>
</clipPath>
</defs>
</svg>
